<svg preserveAspectRatio="none" overflow="visible" style="display: block;" width="251.203" height="228.87" viewBox="0 0 251.203 228.87" fill="none" xmlns="http://www.w3.org/2000/svg">
<path id="track-path" d="M49.4687 4.55603L51.7597 3.59663L54.7189 2.69174L58.2126 1.92858L62.0882 1.37256L66.2025 1.1L70.4217 1.17632L73.5528 1.50338L75.6719 1.79775L78.383 2.19023L81.6285 2.66993L85.3418 3.22595L89.4466 3.84738L93.8663 4.52332L98.5437 5.24288L103.403 5.99514L108.385 6.7692L113.407 7.54327L118.399 8.32823L123.306 9.09139L128.05 9.83275L132.555 10.5414L136.765 11.1955L140.593 11.7952L143.991 12.3294L146.874 12.7873L149.184 13.1471L150.836 13.4087L151.771 13.5613L152.344 13.7249L155.866 15.9598L157.012 19.2741L156.821 22.0106L154.539 25.9355L150.683 30.1001L147.361 32.7385L144.373 35.1479L142.235 37.8299L141.509 40.4791L141.5 40.7953L141.481 41.5694L141.471 42.7577V44.3604L141.5 46.3446L141.567 48.6995L141.681 51.4142L141.853 54.445L142.101 57.8029L142.426 61.4552L142.846 65.38L143.38 69.5665L144.02 73.9928L144.793 78.6481L145.7 83.4997L146.76 88.5365L147.982 93.7478L149.375 99.1009L150.95 104.585L152.716 110.178L154.692 115.869L156.888 121.625L159.312 127.447L161.966 133.301L164.878 139.189L167.541 144.095L170.281 148.695L173.192 153.198L176.256 157.592L179.464 161.876L182.776 166.052L186.184 170.097L189.668 174.022L193.21 177.826L196.789 181.49L200.388 185.022L203.977 188.413L207.547 191.651L211.079 194.747L214.554 197.701L217.952 200.481L221.246 203.109L224.415 205.573L227.46 207.862L230.343 209.977L233.054 211.918L235.564 213.673L237.855 215.254L239.927 216.628L241.731 217.816L243.268 218.808L244.518 219.593L245.454 220.171L246.055 220.542L246.313 220.694L248.174 221.839L250.103 225.96L248.804 227.77L246.227 227.476L241.951 225.775L237.827 224.161L235.593 223.278L232.634 222.057L229.064 220.564L225.016 218.841L220.616 216.966L215.986 214.982L211.251 212.943L206.545 210.904L201.992 208.942L197.706 207.077L193.83 205.398L190.489 203.937L187.797 202.76L185.888 201.931L184.886 201.495L184.475 201.332L182.614 200.285L179.616 197.516L176.199 192.305L174.423 188.456L172.734 184.771L170.729 180.432L168.524 175.679L166.224 170.751L163.952 165.888L161.813 161.32L159.923 157.286L158.396 154.027L157.336 151.77L156.859 150.767L156.477 149.502L154.473 146.679L149.91 146.199L145.185 148.706L142.034 150.909L139.629 153.285L137.787 156.185L136.297 159.936L135.037 164.122L133.596 167.905L131.744 171.122L129.3 173.476L126.122 174.665L122.046 174.381L119.478 173.564L117.015 172.659L113.941 171.47L110.361 170.053L106.352 168.45L102.018 166.684L97.4555 164.82L92.759 162.879L88.0147 160.917L83.3277 158.955L78.7839 157.058L74.4883 155.259L70.5172 153.591L66.9852 152.097L63.9688 150.821L61.5823 149.808L59.9022 149.099L59.024 148.728L58.7472 148.608L57.6303 148.009L55.7785 146.711L53.5638 144.596L51.3683 141.533L49.5546 137.422L48.495 132.135L48.5714 125.55L50.0414 117.777L51.7597 110.668L53.287 104.323L54.6139 98.7629L55.7498 93.9986L56.6758 90.0629L57.4012 86.9775L57.9263 84.7643L58.2317 83.456L58.3272 83.0418L58.8617 80.0436L58.604 74.4616L55.998 70.068L53.8693 68.1274L52.3801 67.5278L48.495 67.8658L44.8676 71.4417L42.2234 75.203L39.2355 79.4985L36.5436 83.3906L34.7967 85.92L34.3194 86.5523L33.9185 89.5941L35.2549 96.5388L36.0282 101.096L36.2 104.934L35.78 108.39L34.7108 112.325L33.1739 117.428L31.7707 121.898L31.1598 123.827L30.1861 125.833L26.9119 128.417L22.349 127.567L18.2347 125.942L13.7196 124.133L9.57669 122.465L6.60794 121.265L5.58653 120.851L4.54604 120.317L2.63688 118.562L1.1 115.193L1.15727 109.785L3.7251 102.568L6.07337 97.5091L8.40255 92.4396L10.6076 87.6425L12.5645 83.3361L14.1682 79.7929L15.3137 77.2635L15.896 75.9989L16.0392 75.6718L16.5642 74.4943L17.4997 72.412L18.7979 69.5229L20.4112 65.9469L22.2822 61.7932L24.3823 57.1706L26.6446 52.1773L29.0311 46.9442L31.4843 41.5694L33.9663 36.1727L36.4195 30.8524L38.8155 25.7283L41.0779 20.9095L43.178 16.505L45.0585 12.6237L46.6813 9.37485L47.9795 6.87822L48.9246 5.23197L49.4687 4.55603Z" stroke="#B684FF" stroke-width="2.2" stroke-linecap="round" stroke-linejoin="round"/>
</svg>
